# Blender v2.91.2 OBJ File: 'platforms.blend'
# www.blender.org
mtllib Collectable.mtl
o Icosphere
v 0.000000 -10.000000 0.000000
v 7.236073 -4.472195 5.257253
v -2.763880 -4.472198 8.506493
v -8.944263 -4.472156 0.000000
v -2.763880 -4.472198 -8.506493
v 7.236073 -4.472195 -5.257253
v 2.763880 4.472198 8.506493
v -7.236073 4.472195 5.257253
v -7.236073 4.472195 -5.257253
v 2.763880 4.472198 -8.506493
v 8.944263 4.472156 0.000000
v -1.624556 -8.506544 4.999953
v 4.253227 -8.506542 3.090114
v 2.628688 -5.257377 8.090117
v 8.506478 -5.257359 0.000000
v 4.253227 -8.506542 -3.090114
v -5.257298 -8.506516 0.000000
v -6.881894 -5.257362 4.999969
v -1.624556 -8.506544 -4.999953
v -6.881894 -5.257362 -4.999969
v 2.628688 -5.257377 -8.090117
v 9.510578 0.000000 3.090126
v 9.510578 0.000000 -3.090126
v 0.000000 0.000000 9.999999
v 5.877856 0.000000 8.090167
v -9.510578 0.000000 3.090126
v -5.877856 0.000000 8.090167
v -5.877856 0.000000 -8.090167
v -9.510578 0.000000 -3.090126
v 5.877856 0.000000 -8.090167
v 0.000000 0.000000 -9.999999
v 6.881894 5.257362 4.999969
v -2.628688 5.257377 8.090117
v -8.506478 5.257359 0.000000
v -2.628688 5.257377 -8.090117
v 6.881894 5.257362 -4.999969
v 1.195813 8.572232 3.680401
v 3.869828 8.572212 0.000000
v -3.130748 8.572231 2.274594
v -3.130748 8.572231 -2.274594
v 1.195813 8.572232 -3.680401
v 8.476952 0.000001 2.754283
v 6.363782 -4.335661 4.623500
v 8.476952 0.000001 -2.754283
v 7.866054 4.335621 0.000000
v 0.000000 0.000000 8.913180
v -2.430695 -4.335663 7.481055
v 5.239039 0.000001 7.210912
v 2.430695 4.335663 7.481055
v -8.476952 -0.000001 2.754283
v -7.866054 -4.335621 0.000000
v -5.239039 -0.000001 7.210912
v -6.363782 4.335661 4.623500
v -5.239039 -0.000001 -7.210912
v -2.430695 -4.335663 -7.481055
v -8.476952 -0.000001 -2.754283
v -6.363782 4.335661 -4.623500
v 5.239039 0.000001 -7.210912
v 6.363782 -4.335661 -4.623500
v 0.000000 0.000000 -8.913180
v 2.430695 4.335663 -7.481055
v 6.018247 5.053480 -4.372497
v -2.298805 5.053492 -7.074841
v -7.438955 5.053473 0.000000
v -2.298805 5.053492 7.074841
v 6.018247 5.053480 4.372497
v 2.298805 -5.053492 -7.074841
v -6.018247 -5.053480 -4.372497
v -6.018247 -5.053480 4.372497
v 2.298805 -5.053492 7.074841
v 7.438955 -5.053473 0.000000
v 3.869828 8.572212 0.000000
v -0.000002 9.671546 0.000000
v 1.195813 8.572232 3.680401
v -3.130748 8.572231 2.274594
v -3.130748 8.572231 -2.274594
v 1.195813 8.572232 -3.680401
vt 0.818181 0.319902
vt 0.772726 0.398632
vt 0.863635 0.398632
vt 0.727272 0.477363
vt 0.681818 0.398632
vt 0.636363 0.477363
vt 0.090909 0.319902
vt 0.045454 0.398632
vt 0.136363 0.398632
vt 0.272727 0.319902
vt 0.227273 0.398632
vt 0.318182 0.398632
vt 0.454545 0.319902
vt 0.409090 0.398632
vt 0.500000 0.398632
vt 0.681818 0.556093
vt 0.909090 0.477363
vt 0.818181 0.477363
vt 0.863635 0.556093
vt 0.181818 0.477363
vt 0.090909 0.477363
vt 0.136363 0.556093
vt 0.363636 0.477363
vt 0.272727 0.477363
vt 0.318182 0.556093
vt 0.545454 0.477363
vt 0.454545 0.477363
vt 0.500000 0.556093
vt 0.681818 0.556093
vt 0.727272 0.477363
vt 0.545454 0.634823
vt 0.500000 0.556093
vt 0.409090 0.556093
vt 0.409090 0.556093
vt 0.727272 0.634823
vt 0.818181 0.634823
vt 0.772726 0.713553
vt 1.000000 0.634823
vt 0.909091 0.634823
vt 0.954545 0.713553
vt 0.272727 0.634823
vt 0.181818 0.634823
vt 0.227273 0.713553
vt 0.454545 0.634823
vt 0.363636 0.634823
vt 0.409090 0.713553
vt 0.636363 0.634823
vt 0.590909 0.713553
vt 0.136363 0.713553
vt 0.227273 0.713553
vt 0.500000 0.713553
vt 0.681818 0.713553
vt 0.772726 0.713553
vt 0.318182 0.713553
vt 0.318182 0.713553
vt 0.409090 0.713553
vt 0.136363 0.713553
vt 0.090909 0.634823
vt 0.863635 0.713553
vt 0.954545 0.713553
vt 0.863635 0.713553
vt 0.500000 0.713553
vt 0.590909 0.713553
vt 0.681818 0.713553
vt 0.590909 0.556093
vt 0.590909 0.556093
vt 0.545454 0.634823
vt 0.454545 0.634823
vt 0.227273 0.556093
vt 0.772726 0.556093
vt 0.818181 0.477363
vt 0.954545 0.556093
vt 0.227273 0.556093
vt 0.772726 0.556093
vt 0.727272 0.634823
vt 0.863635 0.556093
vt 0.318182 0.556093
vt 0.272727 0.634823
vt 0.000000 0.477363
vt 0.045454 0.556093
vt 0.045454 0.556093
vt 0.545454 0.477363
vt 0.090909 0.477363
vt 0.136363 0.556093
vt 0.090909 0.634823
vt 0.954545 0.556093
vt 0.909091 0.634823
vt 0.590909 0.398632
vt 0.636363 0.319902
vt 0.909090 0.477363
vt 0.181818 0.477363
vt 0.363636 0.477363
vt 0.363636 0.634823
vt 0.181818 0.634823
vt 0.454545 0.477363
vt 0.272727 0.477363
vt 0.818181 0.634823
vt 0.636363 0.634823
vt 0.636363 0.477363
vt 0.545454 0.792284
vt 0.363636 0.792284
vt 0.181818 0.792284
vt 0.909090 0.792284
vt 0.727272 0.792284
vt 0.000000 0.477363
vt 1.000000 0.634823
vn 0.1024 -0.9435 0.3151
vn 0.7002 -0.6617 0.2680
vn -0.2680 -0.9435 0.1947
vn -0.2680 -0.9435 -0.1947
vn 0.1024 -0.9435 -0.3151
vn 0.9050 -0.3304 0.2680
vn 0.0247 -0.3304 0.9435
vn -0.8897 -0.3304 0.3151
vn -0.5746 -0.3304 -0.7488
vn 0.5346 -0.3304 -0.7779
vn -0.4434 0.5283 0.7241
vn 0.7236 -0.4472 0.5257
vn 0.2764 0.4472 -0.8507
vn -0.8507 0.5257 0.0000
vn -0.2764 -0.4472 0.8507
vn 0.3216 0.7706 0.5502
vn -0.4239 0.7706 0.4759
vn -0.5836 0.7706 -0.2561
vn 0.0632 0.7706 -0.6341
vn 0.6227 0.7706 -0.1358
vn 0.0000 0.0000 1.0000
vn 0.4246 0.8512 -0.3085
vn 0.3216 0.7706 -0.5502
vn -0.1622 0.8512 -0.4992
vn -0.4239 0.7706 -0.4759
vn -0.5249 0.8512 0.0000
vn -0.5836 0.7706 0.2561
vn -0.1622 0.8512 0.4992
vn 0.0632 0.7706 0.6341
vn 0.4246 0.8512 0.3085
vn 0.6227 0.7706 0.1358
vn 0.8897 0.3304 -0.3151
vn -0.4470 -0.4626 -0.7656
vn 0.5746 0.3304 -0.7488
vn -0.0247 0.3304 -0.9435
vn -0.7843 -0.5283 -0.3252
vn -0.5346 0.3304 -0.7779
vn -0.9050 0.3304 -0.2680
vn -0.8117 0.4626 0.3566
vn -0.9050 0.3304 0.2680
vn -0.5346 0.3304 0.7779
vn -0.2629 0.5257 0.8090
vn -0.0247 0.3304 0.9435
vn 0.5746 0.3304 0.7488
vn 0.5900 -0.4626 -0.6617
vn 0.8897 0.3304 0.3151
vn 0.8944 0.4472 0.0000
vn -0.5516 -0.5283 0.6455
vn 0.0247 -0.3304 -0.9435
vn 0.8507 -0.5257 0.0000
vn -0.8944 -0.4472 0.0000
vn -0.8897 -0.3304 -0.3151
vn 0.6882 0.5257 0.5000
vn 0.5516 0.5283 0.6455
vn -0.5746 -0.3304 0.7488
vn -0.5900 0.4626 -0.6617
vn 0.4434 -0.5283 0.7241
vn 0.5346 -0.3304 0.7779
vn 0.2629 -0.5257 -0.8090
vn 0.8117 -0.4626 0.3566
vn 0.9050 -0.3304 -0.2680
vn 0.4713 -0.6617 -0.5831
vn 0.1876 -0.7947 -0.5773
vn -0.0385 -0.6617 -0.7488
vn -0.4089 -0.6617 -0.6284
vn -0.4911 -0.7947 -0.3568
vn -0.7240 -0.6617 -0.1947
vn -0.7240 -0.6617 0.1947
vn -0.4911 -0.7947 0.3568
vn -0.4089 -0.6617 0.6284
vn 0.7002 -0.6617 -0.2680
vn 0.6071 -0.7947 0.0000
vn 0.3313 -0.9435 0.0000
vn -0.0385 -0.6617 0.7488
vn 0.1876 -0.7947 0.5773
vn 0.4713 -0.6617 0.5831
vn 0.8011 -0.1395 0.5820
vn -0.3060 -0.1395 0.9418
vn -0.9902 -0.1395 0.0000
vn -0.3060 -0.1395 -0.9418
vn 0.8011 -0.1395 -0.5820
vn 0.7925 0.2012 -0.5758
vn -0.3027 0.2012 -0.9316
vn -0.9795 0.2012 0.0000
vn -0.3027 0.2012 0.9316
vn 0.7925 0.2012 0.5758
vn 0.3060 0.1395 -0.9418
vn 0.3027 -0.2012 -0.9316
vn -0.8011 0.1395 -0.5820
vn -0.7925 -0.2012 -0.5758
vn -0.8011 0.1395 0.5820
vn -0.7925 -0.2012 0.5758
vn 0.3060 0.1395 0.9418
vn 0.3027 -0.2012 0.9316
vn 0.9902 0.1395 0.0000
vn 0.9795 -0.2012 0.0000
vn 0.0884 0.4626 0.8821
vn -0.7236 0.4472 -0.5257
vn -0.8663 -0.4626 0.1886
vn 0.2629 -0.5257 0.8090
vn 0.8663 0.4626 0.1886
vn -0.8257 0.5283 -0.1979
vn 0.7236 -0.4472 -0.5257
vn -0.6882 -0.5257 0.5000
vn 0.0669 -0.5283 -0.8464
vn -0.7236 0.4472 0.5257
vn -0.0884 -0.4626 0.8821
vn -0.0669 0.5283 -0.8464
vn -0.2629 0.5257 -0.8090
vn 0.4470 0.4626 -0.7656
vn -0.6882 -0.5257 -0.5000
vn 0.8257 -0.5283 -0.1979
vn -0.2764 -0.4472 -0.8507
vn 0.7843 0.5283 -0.3252
vn 0.6882 0.5257 -0.5000
vn 0.2764 0.4472 0.8507
vn 0.2680 0.9435 -0.1947
vn -0.1024 0.9435 -0.3151
vn -0.3313 0.9435 0.0000
vn -0.1024 0.9435 0.3151
vn 0.2680 0.9435 0.1947
vn 0.5900 -0.4626 0.6617
vn 0.0884 0.4626 -0.8821
vn -0.8257 0.5283 0.1979
vn -0.4470 -0.4626 0.7656
vn -0.0669 0.5283 0.8464
vn 0.8663 0.4626 -0.1886
vn 0.8257 -0.5283 0.1979
vn -0.8663 -0.4626 -0.1886
vn 0.7843 0.5283 0.3252
vn 0.4434 -0.5283 -0.7241
vn -0.8117 0.4626 -0.3566
vn 0.0669 -0.5283 0.8464
vn 0.8117 -0.4626 -0.3566
vn -0.7843 -0.5283 0.3252
vn -0.5900 0.4626 0.6617
vn -0.4434 0.5283 -0.7241
vn -0.5516 -0.5283 -0.6455
vn -0.0884 -0.4626 -0.8821
vn 0.5516 0.5283 -0.6455
vn 0.4470 0.4626 0.7656
usemtl collectable
s off
f 1/1/1 13/2/1 12/3/1
f 2/4/2 13/5/2 15/6/2
f 1/7/3 12/8/3 17/9/3
f 1/10/4 17/11/4 19/12/4
f 1/13/5 19/14/5 16/15/5
f 2/4/6 15/6/6 22/16/6
f 3/17/7 14/18/7 24/19/7
f 4/20/8 18/21/8 26/22/8
f 5/23/9 20/24/9 28/25/9
f 6/26/10 21/27/10 30/28/10
f 2/4/11 42/29/11 43/30/11
f 36/31/12 58/32/12 30/28/12
f 15/6/13 42/29/13 22/16/13
f 5/23/14 60/33/14 31/34/14
f 32/35/15 42/29/15 22/16/15
f 7/36/16 32/35/16 37/37/16
f 8/38/17 33/39/17 39/40/17
f 9/41/18 34/42/18 40/43/18
f 10/44/19 35/45/19 41/46/19
f 11/47/20 36/31/20 38/48/20
f 40/43/21 75/49/21 76/50/21
f 38/48/22 36/31/22 41/51/22
f 36/31/23 10/44/23 41/51/23
f 37/37/21 72/52/21 74/53/21
f 41/46/24 35/45/24 40/54/24
f 35/45/25 9/41/25 40/54/25
f 41/46/21 76/55/21 77/56/21
f 40/43/26 34/42/26 39/57/26
f 34/42/27 8/58/27 39/57/27
f 39/40/21 74/59/21 75/60/21
f 39/40/28 33/39/28 37/61/28
f 33/39/29 7/36/29 37/61/29
f 38/48/21 77/62/21 72/63/21
f 37/37/30 32/35/30 38/64/30
f 32/35/31 11/47/31 38/64/31
f 23/65/32 36/31/32 11/47/32
f 36/31/33 44/66/33 62/67/33
f 30/28/34 10/44/34 36/31/34
f 31/34/35 35/45/35 10/44/35
f 10/44/36 58/32/36 61/68/36
f 28/25/37 9/41/37 35/45/37
f 29/69/38 34/42/38 9/41/38
f 14/18/39 48/70/39 70/71/39
f 26/22/40 8/58/40 34/42/40
f 27/72/41 33/39/41 8/38/41
f 4/20/42 56/73/42 29/69/42
f 24/19/43 7/36/43 33/39/43
f 25/74/44 32/35/44 7/36/44
f 32/35/45 48/70/45 66/75/45
f 22/16/46 11/47/46 32/35/46
f 14/18/47 46/76/47 24/19/47
f 9/41/48 54/77/48 57/78/48
f 21/27/49 5/23/49 31/34/49
f 10/44/50 60/33/50 31/34/50
f 33/39/51 46/76/51 24/19/51
f 20/24/52 4/20/52 29/69/52
f 3/79/53 52/80/53 27/81/53
f 6/26/54 58/32/54 59/82/54
f 18/21/55 3/79/55 27/81/55
f 18/21/56 52/80/56 69/83/56
f 8/58/57 50/84/57 53/85/57
f 14/18/58 2/4/58 25/74/58
f 9/41/59 56/73/59 29/69/59
f 33/39/60 52/86/60 65/87/60
f 15/6/61 6/26/61 23/65/61
f 16/15/62 21/27/62 6/26/62
f 16/15/63 19/14/63 21/27/63
f 19/14/64 5/23/64 21/27/64
f 19/12/65 20/24/65 5/23/65
f 19/12/66 17/11/66 20/24/66
f 17/11/67 4/20/67 20/24/67
f 17/9/68 18/21/68 4/20/68
f 17/9/69 12/8/69 18/21/69
f 12/8/70 3/79/70 18/21/70
f 15/6/71 16/88/71 6/26/71
f 15/6/72 13/5/72 16/88/72
f 13/5/73 1/89/73 16/88/73
f 12/3/74 14/18/74 3/17/74
f 12/3/75 13/2/75 14/18/75
f 13/2/76 2/4/76 14/18/76
f 43/30/77 42/29/77 48/70/77
f 47/90/78 46/76/78 52/86/78
f 51/91/79 50/84/79 56/73/79
f 55/92/80 54/77/80 60/33/80
f 59/82/81 58/32/81 44/66/81
f 44/66/82 58/32/82 62/67/82
f 60/33/83 54/77/83 63/93/83
f 56/73/84 50/84/84 64/94/84
f 52/86/85 46/76/85 65/87/85
f 48/70/86 42/29/86 66/75/86
f 58/32/87 60/33/87 61/68/87
f 58/32/88 67/95/88 60/33/88
f 54/77/89 56/73/89 57/78/89
f 54/77/90 68/96/90 56/73/90
f 50/84/91 52/80/91 53/85/91
f 50/84/92 69/83/92 52/80/92
f 46/76/93 48/70/93 49/97/93
f 46/76/94 70/71/94 48/70/94
f 42/29/95 44/66/95 45/98/95
f 42/29/96 71/99/96 44/66/96
f 15/6/97 44/66/97 71/99/97
f 21/27/98 58/32/98 30/28/98
f 35/45/99 60/33/99 63/93/99
f 11/47/100 44/66/100 23/65/100
f 21/27/101 60/33/101 67/95/101
f 3/17/102 46/76/102 47/90/102
f 35/45/103 54/77/103 28/25/103
f 7/36/104 48/70/104 25/74/104
f 11/47/105 42/29/105 45/98/105
f 20/24/106 54/77/106 28/25/106
f 34/42/107 56/73/107 64/94/107
f 4/20/108 50/84/108 51/91/108
f 6/26/109 44/66/109 23/65/109
f 20/24/110 56/73/110 68/96/110
f 8/38/111 52/86/111 27/72/111
f 7/36/112 46/76/112 49/97/112
f 34/42/113 50/84/113 26/22/113
f 5/23/114 54/77/114 55/92/114
f 2/4/115 48/70/115 25/74/115
f 18/21/116 50/84/116 26/22/116
f 72/63/117 77/62/117 73/100/117
f 77/56/118 76/55/118 73/101/118
f 76/50/119 75/49/119 73/102/119
f 75/60/120 74/59/120 73/103/120
f 74/53/121 72/52/121 73/104/121
f 2/4/42 22/16/42 42/29/42
f 36/31/122 62/67/122 58/32/122
f 15/6/123 71/99/123 42/29/123
f 5/23/124 55/92/124 60/33/124
f 32/35/125 66/75/125 42/29/125
f 40/43/21 39/57/21 75/49/21
f 37/37/21 38/64/21 72/52/21
f 41/46/21 40/54/21 76/55/21
f 39/40/21 37/61/21 74/59/21
f 38/48/21 41/51/21 77/62/21
f 36/31/113 23/65/113 44/66/113
f 10/44/111 30/28/111 58/32/111
f 14/18/106 25/74/106 48/70/106
f 4/20/126 51/91/126 56/73/126
f 32/35/103 25/74/103 48/70/103
f 14/18/127 70/71/127 46/76/127
f 9/41/104 28/25/104 54/77/104
f 10/44/128 61/68/128 60/33/128
f 33/39/129 65/87/129 46/76/129
f 3/79/130 47/105/130 52/80/130
f 6/26/53 30/28/53 58/32/53
f 18/21/98 27/81/98 52/80/98
f 8/58/100 26/22/100 50/84/100
f 9/41/131 57/78/131 56/73/131
f 33/39/12 27/72/12 52/86/12
f 15/6/116 23/65/116 44/66/116
f 21/27/132 67/95/132 58/32/132
f 35/45/51 31/34/51 60/33/51
f 11/47/133 45/98/133 44/66/133
f 21/27/47 31/34/47 60/33/47
f 3/17/14 24/19/14 46/76/14
f 35/45/134 63/93/134 54/77/134
f 7/36/135 49/97/135 48/70/135
f 11/47/59 22/16/59 42/29/59
f 20/24/136 68/96/136 54/77/136
f 34/42/15 29/69/15 56/73/15
f 4/20/109 26/22/109 50/84/109
f 6/26/137 59/82/137 44/66/137
f 20/24/13 29/69/13 56/73/13
f 8/38/138 53/106/138 52/86/138
f 7/36/50 24/19/50 46/76/50
f 34/42/139 64/94/139 50/84/139
f 5/23/115 28/25/115 54/77/115
f 2/4/140 43/30/140 48/70/140
f 18/21/141 69/83/141 50/84/141
