# Blender v2.91.2 OBJ File: 'platforms.blend'
# www.blender.org
mtllib platform3.mtl
o Cube.005
v -18.691051 -0.826043 14.026769
v -19.886501 0.826043 14.923898
v -18.691051 -0.826043 -14.026769
v -19.886501 0.826043 -14.923898
v 18.691051 -0.826043 14.026769
v 19.886501 0.826043 14.923898
v 18.691051 -0.826043 -14.026769
v 19.886501 0.826043 -14.923898
v -15.532991 2.614938 11.656790
v -15.532991 2.614938 -11.656790
v 15.532991 2.614938 -11.656790
v 15.532991 2.614938 11.656790
v -23.882170 -1.026393 -15.622425
v -23.882170 -1.026393 15.622425
v -25.216230 0.820300 16.621611
v -25.216230 0.820300 -16.621611
v -24.022434 2.819342 15.727059
v -24.022434 2.819342 -15.727059
v -35.991413 -1.026393 -15.622425
v -35.991413 -1.026393 15.622425
v -37.325470 0.820300 -16.621611
v -37.325470 0.820300 16.621611
v -36.131676 2.819342 15.727059
v -36.131676 2.819342 -15.727059
vt 0.625000 1.000000
vt 0.625000 1.000000
vt 0.625000 1.000000
vt 0.625000 0.250000
vt 0.375000 0.500000
vt 0.375000 0.250000
vt 0.625000 0.500000
vt 0.375000 0.750000
vt 0.625000 0.750000
vt 0.375000 1.000000
vt 0.125000 0.750000
vt 0.125000 0.500000
vt 0.125000 0.500000
vt 0.875000 0.500000
vt 0.625000 0.750000
vt 0.625000 0.500000
vt 0.875000 0.500000
vt 0.875000 0.750000
vt 0.875000 0.750000
vt 0.625000 0.250000
vt 0.375000 1.000000
vt 0.875000 0.750000
vt 0.625000 0.250000
vt 0.625000 0.250000
vt 0.625000 0.250000
vt 0.625000 0.000000
vt 0.375000 0.250000
vt 0.375000 0.000000
vt 0.625000 0.250000
vt 0.125000 0.750000
vt 0.125000 0.500000
vt 0.625000 1.000000
vt 0.625000 1.000000
vt 0.375000 1.000000
vt 0.625000 1.000000
vt 0.875000 0.500000
vt 0.375000 0.250000
vt 0.625000 0.000000
vt 0.125000 0.750000
vn 0.2134 0.7087 0.6725
vn 0.0000 -0.4772 -0.8788
vn 0.8101 -0.5862 0.0000
vn 0.0000 -0.4772 0.8788
vn 0.0000 -1.0000 0.0000
vn 0.0386 -0.9993 0.0000
vn 0.0000 1.0000 0.0000
vn 0.0000 0.8771 0.4803
vn 0.0000 0.8771 -0.4803
vn 0.3801 0.9250 0.0000
vn 0.2912 -0.2852 -0.9132
vn 0.2917 -0.2835 0.9135
vn 0.0241 0.9997 0.0000
vn 0.4307 0.1416 -0.8913
vn 0.0000 0.4085 -0.9128
vn -0.8106 -0.5856 0.0000
vn -0.8586 0.5127 0.0000
vn 0.0000 0.4085 0.9128
vn 0.0000 -0.4759 -0.8795
vn 0.0000 -0.4759 0.8795
vn 0.4307 0.1416 0.8913
vn 0.2917 -0.2835 -0.9135
vn 0.2912 -0.2852 0.9132
vn 0.2134 0.7087 -0.6725
usemtl platform_2
s off
f 9/1/1 15/2/1 2/3/1
f 4/4/2 7/5/2 3/6/2
f 8/7/3 5/8/3 7/5/3
f 6/9/4 1/10/4 5/8/4
f 7/5/5 1/11/5 3/12/5
f 1/11/6 13/13/6 3/12/6
f 10/14/7 12/15/7 11/16/7
f 6/9/8 9/1/8 2/3/8
f 4/4/9 11/16/9 8/7/9
f 8/7/10 12/15/10 6/9/10
f 18/17/7 23/18/7 17/19/7
f 3/6/11 16/20/11 4/4/11
f 1/10/12 15/2/12 14/21/12
f 10/14/13 17/19/13 9/22/13
f 10/23/14 16/20/14 18/24/14
f 16/20/15 24/25/15 18/24/15
f 22/26/16 19/27/16 20/28/16
f 22/26/17 24/25/17 21/29/17
f 14/30/5 19/31/5 13/13/5
f 15/2/18 23/32/18 22/33/18
f 16/20/19 19/27/19 21/29/19
f 15/2/20 20/34/20 14/21/20
f 9/1/21 17/35/21 15/2/21
f 4/4/2 8/7/2 7/5/2
f 8/7/3 6/9/3 5/8/3
f 6/9/4 2/3/4 1/10/4
f 7/5/5 5/8/5 1/11/5
f 1/11/6 14/30/6 13/13/6
f 10/14/7 9/22/7 12/15/7
f 6/9/8 12/15/8 9/1/8
f 4/4/9 10/23/9 11/16/9
f 8/7/10 11/16/10 12/15/10
f 18/17/7 24/36/7 23/18/7
f 3/6/22 13/37/22 16/20/22
f 1/10/23 2/3/23 15/2/23
f 10/14/13 18/17/13 17/19/13
f 10/23/24 4/4/24 16/20/24
f 16/20/15 21/29/15 24/25/15
f 22/26/16 21/29/16 19/27/16
f 22/26/17 23/38/17 24/25/17
f 14/30/5 20/39/5 19/31/5
f 15/2/18 17/35/18 23/32/18
f 16/20/19 13/37/19 19/27/19
f 15/2/20 22/33/20 20/34/20
