# Blender v2.91.2 OBJ File: 'platforms copy.blend'
# www.blender.org
mtllib platform square 3.mtl
o Plane.001
v -525.155701 -7.173320 281.933167
v -482.331818 7.173320 259.396912
v -525.155701 -7.173320 -281.933167
v -482.331818 7.173320 -259.396912
v 525.155701 -7.173320 281.933167
v 482.331818 7.173320 259.396912
v 525.155701 -7.173320 -281.933167
v 482.331818 7.173320 -259.396912
v -525.155701 7.173320 281.933167
v -525.155701 7.173320 -281.933167
v 525.155701 7.173320 -281.933167
v 525.155701 7.173320 281.933167
vt 0.625000 0.000000
vt 0.375000 0.250000
vt 0.375000 0.000000
vt 0.625000 0.250000
vt 0.375000 0.500000
vt 0.625000 0.500000
vt 0.375000 0.750000
vt 0.625000 0.750000
vt 0.375000 1.000000
vt 0.125000 0.750000
vt 0.125000 0.500000
vt 0.864807 0.509992
vt 0.875000 0.750000
vt 0.864807 0.740008
vt 0.875000 0.500000
vt 0.635193 0.740008
vt 0.635193 0.509992
vt 0.625000 1.000000
vn -1.0000 0.0000 0.0000
vn 0.0000 0.0000 -1.0000
vn 1.0000 0.0000 0.0000
vn 0.0000 0.0000 1.0000
vn 0.0000 -1.0000 0.0000
vn 0.0000 1.0000 0.0000
usemtl ground
s off
f 9/1/1 3/2/1 1/3/1
f 10/4/2 7/5/2 3/2/2
f 11/6/3 5/7/3 7/5/3
f 12/8/4 1/9/4 5/7/4
f 7/5/5 1/10/5 3/11/5
f 4/12/6 9/13/6 2/14/6
f 4/12/6 11/6/6 10/15/6
f 6/16/6 11/6/6 8/17/6
f 6/16/6 9/13/6 12/8/6
f 9/1/1 10/4/1 3/2/1
f 10/4/2 11/6/2 7/5/2
f 11/6/3 12/8/3 5/7/3
f 12/8/4 9/18/4 1/9/4
f 7/5/5 5/7/5 1/10/5
f 4/12/6 10/15/6 9/13/6
f 4/12/6 8/17/6 11/6/6
f 6/16/6 12/8/6 11/6/6
f 6/16/6 2/14/6 9/13/6
