# Blender v2.91.2 OBJ File: 'platforms.blend'
# www.blender.org
mtllib platform2.mtl
o Cube.004
v -19.235905 -1.270490 15.000000
v -16.013134 1.270490 12.486911
v -19.235905 -1.270490 -15.000000
v -16.013134 1.270490 -12.486911
v 19.235905 -1.270490 15.000000
v 16.013134 1.270490 12.486911
v 19.235905 -1.270490 -15.000000
v 16.013134 1.270490 -12.486911
v -19.235905 1.270490 15.000000
v -19.235905 1.270490 -15.000000
v 19.235905 1.270490 -15.000000
v 19.235905 1.270490 15.000000
v -13.229124 0.250789 10.315962
v -13.229124 0.250789 -10.315962
v 13.229124 0.250789 -10.315962
v 13.229124 0.250789 10.315962
v -22.292295 -1.270490 -17.383348
v -22.292295 -1.270490 17.383348
v -22.292295 1.270490 17.383348
v -22.292295 1.270490 -17.383348
v 22.292295 -1.270490 -17.383348
v 22.292295 1.270490 -17.383348
v 22.292295 -1.270490 17.383348
v 22.292295 1.270490 17.383348
vt 0.625000 0.500000
vt 0.875000 0.500000
vt 0.875000 0.500000
vt 0.375000 0.500000
vt 0.375000 0.750000
vt 0.375000 0.750000
vt 0.125000 0.750000
vt 0.125000 0.500000
vt 0.125000 0.500000
vt 0.875000 0.750000
vt 0.625000 0.750000
vt 0.625000 0.750000
vt 0.645943 0.729058
vt 0.645943 0.520942
vt 0.645943 0.729058
vt 0.854058 0.520942
vt 0.854058 0.729058
vt 0.645943 0.520942
vt 0.854058 0.520942
vt 0.854058 0.729058
vt 0.625000 0.000000
vt 0.375000 0.250000
vt 0.375000 0.000000
vt 0.625000 0.250000
vt 0.375000 0.500000
vt 0.625000 0.500000
vt 0.375000 1.000000
vt 0.125000 0.750000
vt 0.875000 0.750000
vt 0.625000 1.000000
vn 0.0000 1.0000 -0.0000
vn 0.0000 -1.0000 0.0000
vn -0.3439 0.9390 0.0000
vn 0.3439 0.9390 0.0000
vn 0.0000 0.9051 -0.4251
vn 0.0000 0.9051 0.4251
vn -1.0000 0.0000 0.0000
vn 0.0000 0.0000 -1.0000
vn 1.0000 0.0000 0.0000
vn 0.0000 0.0000 1.0000
usemtl None
s off
f 11/1/1 20/2/1 10/3/1
f 7/4/2 23/5/2 5/6/2
f 1/7/2 17/8/2 3/9/2
f 9/10/1 24/11/1 12/12/1
f 7/4/2 1/7/2 3/9/2
f 6/13/3 15/14/3 16/15/3
f 4/16/1 9/10/1 2/17/1
f 8/18/1 10/3/1 4/16/1
f 6/13/1 11/1/1 8/18/1
f 2/17/1 12/12/1 6/13/1
f 14/19/1 16/15/1 15/14/1
f 4/16/4 13/20/4 14/19/4
f 2/17/5 16/15/5 13/20/5
f 8/18/6 14/19/6 15/14/6
f 19/21/7 17/22/7 18/23/7
f 20/24/8 21/25/8 17/22/8
f 22/26/9 23/5/9 21/25/9
f 24/11/10 18/27/10 23/5/10
f 5/6/2 18/28/2 1/7/2
f 12/12/1 22/26/1 11/1/1
f 3/9/2 21/25/2 7/4/2
f 10/3/1 19/29/1 9/10/1
f 11/1/1 22/26/1 20/2/1
f 7/4/2 21/25/2 23/5/2
f 1/7/2 18/28/2 17/8/2
f 9/10/1 19/29/1 24/11/1
f 7/4/2 5/6/2 1/7/2
f 6/13/3 8/18/3 15/14/3
f 4/16/1 10/3/1 9/10/1
f 8/18/1 11/1/1 10/3/1
f 6/13/1 12/12/1 11/1/1
f 2/17/1 9/10/1 12/12/1
f 14/19/1 13/20/1 16/15/1
f 4/16/4 2/17/4 13/20/4
f 2/17/5 6/13/5 16/15/5
f 8/18/6 4/16/6 14/19/6
f 19/21/7 20/24/7 17/22/7
f 20/24/8 22/26/8 21/25/8
f 22/26/9 24/11/9 23/5/9
f 24/11/10 19/30/10 18/27/10
f 5/6/2 23/5/2 18/28/2
f 12/12/1 24/11/1 22/26/1
f 3/9/2 17/8/2 21/25/2
f 10/3/1 20/2/1 19/29/1
